<svg width="45" height="31" viewBox="0 0 45 31" fill="none" xmlns="http://www.w3.org/2000/svg">
<path d="M45 1.43095V29.1397C45 29.9287 44.3514 30.5773 43.5624 30.5773H1.43754C0.648545 30.5773 0 29.9287 0 29.1397V1.43095C0 0.641953 0.648545 0 1.43754 0H43.5624C44.3514 0 45 0.641953 45 1.43095Z" fill="url(#paint0_linear_1_494)"/>
<g opacity="0.2">
<path d="M26.312 9.07649C26.2147 8.96706 26.154 8.86986 26.0324 8.92452C25.9109 8.97919 25.9109 9.0582 25.7832 8.961C25.6556 8.86379 25.7102 8.74821 25.4245 8.64494C25.1388 8.54158 25.078 8.48085 24.7679 8.43831C24.458 8.39577 24.233 8.35323 24.2148 8.35323C24.1966 8.35323 24.2817 8.4079 24.1601 8.46872C24.0385 8.52954 23.9412 8.54167 23.8197 8.46266C23.6981 8.38364 23.7042 8.3593 23.4976 8.37758C23.2909 8.39586 23.1693 8.44446 23.0782 8.45659C22.987 8.46872 23.0782 8.45053 22.9383 8.35323C22.7985 8.25594 22.8958 8.20127 22.6526 8.21946C22.4095 8.23775 22.3061 8.249 22.2453 8.21595C22.1845 8.18299 22.2574 8.01275 22.0204 7.9398C21.7834 7.86685 21.7347 7.9216 21.6131 7.90332C21.4916 7.88513 21.4976 7.85472 21.1512 7.83037C20.8047 7.80603 20.8229 7.86078 20.5859 7.93373C20.3488 8.00668 20.288 8.00668 20.0691 7.99455C19.8503 7.98242 19.905 8.11611 19.7713 8.13439C19.6375 8.15258 19.4248 8.0189 19.4005 7.93988C19.3761 7.86087 19.5828 7.77579 19.4005 7.70284C19.2181 7.62989 18.8777 7.49006 18.8108 7.51441C18.7439 7.53875 18.7804 7.64818 18.6588 7.6785C18.5373 7.70891 18.3793 7.70891 18.1908 7.62383C18.0024 7.53875 17.9294 7.49665 17.7289 7.51159C17.5283 7.52653 17.4189 7.58736 17.2486 7.59948C17.0784 7.61161 16.9751 7.53866 17.0906 7.484C17.2061 7.42933 17.352 7.26515 17.352 7.18613C17.352 7.10712 17.4371 6.93688 17.2426 6.91868C17.0481 6.90049 17.0116 7.03417 16.8292 6.91868C16.6469 6.80319 16.4098 6.79713 16.3429 6.8336C16.276 6.87008 16.276 6.9309 16.1606 6.94909C16.0451 6.96729 16.0876 7.07065 15.9478 7.10712C15.8079 7.1436 15.8262 7.03417 15.504 7.06458C15.1818 7.09499 14.8718 7.13753 14.7928 7.22867C14.7138 7.31982 14.8111 7.42318 14.6408 7.50219C14.4706 7.5812 14.0816 7.52038 14.033 7.58727C13.9844 7.65415 14.2458 7.88513 14.0695 7.98849C13.8932 8.09185 13.7837 7.91554 13.3765 7.98849C12.9692 8.06144 13.0179 8.04931 12.866 8.14045C12.714 8.23159 12.6836 8.17086 12.5925 8.29848C12.5013 8.4261 12.2277 8.54167 12.0393 8.54167C11.8508 8.54167 11.7718 8.42618 11.5286 8.52348C11.2855 8.62077 11.322 8.68757 10.939 8.65725C10.556 8.62684 10.398 8.6329 10.3251 8.68159C10.2521 8.7302 10.2521 8.85184 10.0637 8.90651C9.87524 8.96117 9.58344 9.05847 9.51049 9.04028C9.43754 9.02208 9.18837 9.14363 9.01813 9.16183C8.84788 9.18011 8.75067 9.16789 8.69601 9.10101C8.64125 9.03412 8.58052 8.91863 8.6656 8.95511C8.75067 8.99158 8.82362 9.04019 8.97559 9.03412C9.12755 9.02806 9.29779 8.90651 9.26132 8.83962C9.22484 8.77274 9.25525 8.67553 8.95739 8.60258C8.65953 8.52963 8.53191 8.54176 8.307 8.37767C8.08209 8.21358 8.39208 8.10415 7.80251 8.16488C7.21285 8.2257 7.05482 8.28644 6.81778 8.46275C6.58074 8.63905 6.53205 8.79102 6.28895 9.00371C6.04584 9.2165 6.13092 9.27723 5.82699 9.42919C5.52307 9.58115 5.47446 9.5082 5.38323 9.73918C5.292 9.97016 5.23127 10.2376 5.41971 10.2863C5.60815 10.3349 5.80265 10.2498 5.89994 10.2134C5.99724 10.1769 6.07019 10.2438 6.08232 10.3532C6.09444 10.4626 6.10051 10.645 6.22215 10.6692C6.3437 10.6936 6.59902 10.5233 6.5869 10.3471C6.57477 10.1708 6.53223 10.0493 6.65378 9.87295C6.77533 9.69664 6.85435 9.56902 6.98205 9.5082C7.10967 9.44738 7.28598 9.33805 7.21909 9.47779C7.15221 9.61763 7.03065 9.78172 7.11573 9.92155C7.20081 10.0614 7.39531 9.96409 7.444 10.1039C7.49261 10.2438 7.37712 10.3774 7.34671 10.4261C7.3163 10.4747 7.41966 10.5356 7.27983 10.6329C7.13999 10.7301 7.04885 10.8334 6.89689 10.9489C6.74492 11.0644 6.2951 11.1434 6.19174 11.1192C6.08838 11.0948 5.91822 11.1192 5.90601 10.9793C5.89388 10.8395 6.05797 10.6875 5.88781 10.6206C5.71757 10.5538 5.52913 10.645 5.47446 10.882C5.41971 11.1191 5.33463 11.1616 5.19488 11.2771C5.05505 11.3926 5.17054 11.7451 4.76334 11.812C4.35606 11.8789 4.12508 11.7816 4.15549 11.9275C4.1859 12.0734 4.44122 11.9822 4.44729 12.2253C4.45335 12.4684 4.51417 12.5536 4.33786 12.6022C4.16155 12.6508 4.11901 12.5597 3.88197 12.6387C3.64493 12.7177 3.65706 13.0156 3.60846 13.1432C3.55985 13.2708 3.53551 13.3863 3.69354 13.441C3.85156 13.4957 4.10689 13.593 4.29532 13.514C4.48376 13.435 4.59318 13.4229 4.61753 13.277C4.64188 13.1311 4.70261 13.0399 4.83031 13.0156C4.95793 12.9912 5.0431 12.8453 5.11596 12.7602C5.18891 12.6752 5.11596 12.7056 5.3044 12.7116C5.49283 12.7177 5.66914 12.5171 5.73594 12.5718C5.80282 12.6265 6.00339 12.7421 6.13101 12.8636C6.25862 12.9852 6.43493 13.0216 6.40452 13.204C6.37411 13.3864 6.36198 13.5978 6.48354 13.5438C6.60509 13.4897 6.56255 13.3256 6.64156 13.2465C6.72058 13.1675 6.82394 13.2405 6.81181 13.1006C6.79968 12.9608 6.59296 12.9243 6.48354 12.7967C6.37411 12.6691 6.28903 12.5293 6.42272 12.5718C6.5564 12.6143 6.81172 12.7298 6.83607 12.8271C6.86041 12.9244 7.08532 13.125 7.10958 13.3134C7.13393 13.5019 7.26761 13.6721 7.32843 13.5748C7.38925 13.4775 7.33449 13.4046 7.46826 13.3803C7.60194 13.356 7.55334 13.2588 7.62629 13.1311C7.69924 13.0034 7.89981 13.1919 7.97275 12.9547C8.0457 12.7177 7.88161 12.6361 8.0639 12.5067C8.24627 12.3773 8.32528 12.2922 8.37995 12.4077C8.43462 12.5232 8.57445 12.6448 8.64134 12.5232C8.70822 12.4017 8.51979 12.3652 8.67781 12.2739C8.83584 12.1828 8.97567 12.0734 8.93314 12.2314C8.8906 12.3894 8.82978 12.4928 8.9392 12.6022C9.04862 12.7116 9.37074 12.7785 9.19452 12.8757C9.01821 12.973 8.76298 12.9183 8.52585 13.0216C8.28881 13.125 8.25234 13.0763 8.19151 13.2709C8.13069 13.4654 8.12463 13.5262 8.3252 13.5262C8.52576 13.5262 8.61699 13.3864 8.67166 13.5627C8.72633 13.739 8.7142 14.1341 8.62912 14.1705C8.54404 14.207 8.50757 14.1523 8.13069 14.1949C7.75382 14.2374 7.77201 14.3287 7.46809 14.1766C7.16416 14.0246 7.09121 13.8362 6.98179 14.0246C6.87236 14.2131 6.95138 14.309 6.71434 14.2611C6.4773 14.2131 6.64745 14.1098 6.3314 14.0308C6.01534 13.9518 5.95452 13.9761 5.95452 13.8363C5.95452 13.6965 5.99706 13.5141 5.7478 13.4959C5.49855 13.4777 5.06094 13.581 4.70226 13.6843C4.34358 13.7877 4.41652 13.66 4.00317 13.8059C3.58983 13.9518 3.3345 14.0004 3.29196 14.2253C3.24942 14.4502 3.10959 14.5778 3.01845 14.6995C2.92731 14.821 2.87861 15.356 2.85436 15.6842C2.83001 16.0125 2.91518 15.8605 2.82395 16.1036C2.73272 16.3468 2.98804 16.7297 3.0914 16.833C3.19476 16.9364 3.52909 17.2646 3.74179 17.2889C3.95457 17.3132 3.93629 17.2099 4.26456 17.2585C4.59283 17.3071 4.58677 17.1187 4.9211 17.2038C5.25544 17.2889 5.37699 17.3497 5.57149 17.4531C5.766 17.5564 5.78428 17.6415 5.78428 17.8908C5.78428 18.14 5.79641 17.9516 5.97272 18.3041C6.14902 18.6567 6.45901 18.9849 6.27664 19.2888C6.09427 19.5928 6.01525 19.6474 6.13074 19.9332C6.24623 20.2189 6.56844 20.7963 6.60491 21.0881C6.64139 21.3799 6.55024 21.3981 6.58672 21.5744C6.62319 21.7508 6.95147 21.9453 7.24933 21.8237C7.54719 21.7022 7.63833 21.6961 7.88152 21.4712C8.12463 21.2463 8.36782 21.4165 8.5502 20.9484C8.73257 20.4804 8.67175 20.4256 8.75076 20.2372C8.82978 20.0488 9.30395 19.7752 9.32214 19.4348C9.34033 19.0944 9.21878 18.8391 9.26132 18.5109C9.30386 18.1827 9.33427 17.897 9.65032 17.6356C9.96638 17.3742 10.0393 17.6296 10.2582 17.1372C10.477 16.6448 10.7384 16.5233 10.4952 16.5293C10.252 16.5354 9.77794 16.7299 9.57737 16.6205C9.37681 16.5111 9.04854 16.0126 8.98165 15.7817C8.91477 15.5507 8.93911 15.6662 8.82362 15.3379C8.70814 15.0096 8.59871 14.8395 8.55011 14.7118C8.5015 14.5842 8.47109 14.3592 8.61699 14.5416C8.76289 14.724 8.90273 14.9975 9.09723 15.4169C9.29173 15.8363 9.40722 16.1585 9.57746 16.2254C9.74771 16.2923 9.80237 16.3713 10.0577 16.268C10.313 16.1646 10.4042 16.1525 10.6474 16.0187C10.8905 15.8849 11.0364 15.8607 11.2127 15.6844C11.389 15.5081 11.7901 15.4351 11.3464 15.265C10.9027 15.0948 10.7507 15.192 10.6231 14.9975C10.4955 14.803 10.2888 14.6085 10.4772 14.6389C10.6656 14.6693 10.5927 14.724 10.8055 14.7665C11.0183 14.8091 11.1702 14.7133 11.2857 14.8675C11.4012 15.0218 11.5957 15.1313 11.7781 15.0461C11.9604 14.961 12.0334 14.9124 12.2279 15.0218C12.4224 15.1312 12.2948 15.4412 12.5866 15.5263C12.8784 15.6113 12.927 15.2953 12.9878 15.6965C13.0486 16.0977 13.1641 16.4684 13.2674 16.5475C13.3707 16.6266 13.2127 16.9913 13.5409 16.894C13.8692 16.7967 13.9664 16.8089 13.9664 16.4685C13.9664 16.1281 13.9542 16.043 14.1305 15.9214C14.3068 15.7999 14.5499 15.6783 14.6593 15.5506C14.7687 15.423 14.7018 15.3439 14.9207 15.3682C15.1395 15.3926 15.6805 16.0004 15.6562 16.128C15.6318 16.2557 15.6075 16.3043 15.7108 16.3834C15.8142 16.4624 15.8081 16.4867 15.8871 16.7724C15.9661 17.0581 15.9479 17.0155 16.1971 17.283C16.4464 17.5505 16.7989 17.7389 16.7685 17.5444C16.7381 17.3499 16.6165 17.3742 16.5071 17.0642C16.3977 16.7542 16.2701 16.4745 16.416 16.5536C16.5619 16.6326 16.5193 16.7481 16.6713 16.7725C16.8233 16.7968 16.8476 16.6205 16.9631 16.5657C17.0786 16.5111 17.2853 16.0673 17.1211 15.8728C16.957 15.6783 16.7868 15.5445 16.957 15.4838C17.1273 15.423 17.0482 15.4656 17.2488 15.502C17.4494 15.5385 17.3887 15.4412 17.6318 15.3744C17.8749 15.3075 18.2275 15.1981 18.4159 14.955C18.6044 14.7119 18.811 14.6389 18.7563 14.3167C18.7017 13.9946 18.6287 13.8547 18.5132 13.7696C18.3977 13.6845 18.3917 13.6237 18.4949 13.5872C18.5983 13.5507 18.8657 13.5447 18.7138 13.4657C18.5618 13.3866 18.6348 13.4292 18.4585 13.3866C18.2821 13.3441 18.0937 13.4292 18.2517 13.2833C18.4098 13.1374 18.5313 13.0158 18.5313 13.0158C18.5313 13.0158 18.4888 13.0462 18.5921 13.1557C18.6955 13.2651 18.7624 13.2165 18.811 13.1921C18.8596 13.1678 19.0055 13.0645 19.0238 13.18C19.0421 13.2955 18.8353 13.3806 18.9569 13.4231C19.0784 13.4657 19.1879 13.3562 19.1393 13.5751C19.0907 13.7939 19.1879 13.9945 19.2912 13.8851C19.3946 13.7756 19.5465 13.4535 19.5161 13.3198C19.4857 13.1861 19.3824 13.2529 19.5222 13.0098C19.662 12.7667 19.662 12.5964 19.8505 12.6268C20.0389 12.6572 20.2213 12.4749 20.2942 12.4019C20.3672 12.329 20.6772 12.1587 20.7258 11.9521C20.7744 11.7454 20.7501 11.7151 20.8169 11.4779C20.8838 11.2409 21.0297 11.2409 20.8473 11.1315C20.665 11.022 20.5251 11.0464 20.4948 10.9247C20.4644 10.8032 20.9811 10.2135 21.206 10.1224C21.4309 10.0312 21.5889 10.0738 21.7409 10.1406C21.8929 10.2075 21.9415 10.2743 22.0813 10.1892C22.2211 10.1041 22.3123 10.0554 22.3913 10.0493C22.4703 10.0433 22.6892 9.8791 22.7803 9.95205C22.8714 10.025 22.8837 10.104 22.9931 10.0554C23.1025 10.0068 23.2484 9.75149 23.297 9.84263C23.3456 9.93377 23.3335 10.0432 23.1997 10.2195C23.0659 10.3958 22.9505 10.4262 22.7803 10.566C22.6101 10.7058 22.5433 10.8517 22.5433 10.9793C22.5433 11.1069 22.4947 11.5325 22.5615 11.5386C22.6283 11.5446 22.6465 11.5264 22.8228 11.3015C22.9992 11.0766 23.0903 11.0645 23.2058 10.9793C23.3213 10.8942 23.3638 10.7909 23.3821 10.5903C23.4004 10.3897 23.2727 10.3411 23.4611 10.2378C23.6495 10.1344 23.8745 10.025 24.0629 10.0554C24.2513 10.0858 24.2088 10.0798 24.3486 9.93992C24.4885 9.80009 24.5857 9.70895 24.7316 9.72108C24.8775 9.73321 25.1145 9.76362 25.151 9.69067C25.1875 9.61772 25.157 9.55698 25.1631 9.45362C25.1692 9.35027 25.157 9.30773 25.2969 9.27125C25.4367 9.23478 25.4306 9.18617 25.4974 9.16183C25.5643 9.13748 25.6069 9.21043 25.7163 9.25297C25.8257 9.29551 26.0932 9.30157 26.154 9.22256C26.2147 9.14337 26.312 9.07649 26.312 9.07649Z" fill="#9FA6A9"/>
<path d="M20.975 12.3833C21.0544 12.4125 21.206 12.5352 21.2972 12.5292C21.3883 12.5231 21.437 12.6446 21.3641 12.6568C21.2911 12.6689 21.048 12.7844 21.048 12.7844C21.048 12.7844 20.9751 12.6933 20.9325 12.7844C20.89 12.8755 20.8657 12.9424 20.8779 12.9972C20.89 13.0518 20.9752 13.21 20.9265 13.289C20.8779 13.368 20.811 13.4105 20.811 13.5078C20.811 13.605 20.8718 13.7084 20.7866 13.7509C20.7016 13.7935 20.6164 13.8057 20.5435 13.8299C20.4706 13.8543 20.4159 13.8604 20.3855 13.9272C20.3551 13.9941 20.2821 14.0913 20.1302 14.0853C19.9782 14.0792 19.9782 13.9576 19.8384 14.0731C19.6986 14.1886 19.6925 14.2555 19.6195 14.2251C19.5466 14.1947 19.6013 14.1521 19.6195 14.0367C19.6377 13.9212 19.3703 13.9516 19.6135 13.8178C19.8566 13.684 19.8566 13.6658 20.0208 13.6415C20.1849 13.6172 20.2761 13.6962 20.3429 13.5564C20.4098 13.4166 20.3429 13.3619 20.4766 13.3559C20.6104 13.3498 20.6955 13.4106 20.7198 13.2586C20.7441 13.1066 20.7258 12.979 20.7198 12.8817C20.7137 12.7844 20.6772 12.6933 20.7866 12.6568C20.8961 12.6203 20.9082 12.6872 20.9204 12.6021C20.9324 12.5169 20.8595 12.3407 20.975 12.3833Z" fill="#9FA6A9"/>
<path d="M18.5314 15.6779C18.6469 15.6962 18.7016 15.9028 18.6652 15.9879C18.6287 16.073 18.5922 16.1702 18.6956 16.1884C18.7989 16.2067 18.8719 16.2189 18.8719 16.2918C18.8719 16.3648 18.9144 16.2128 18.9934 16.4073C19.0725 16.6018 18.9995 16.6322 19.0907 16.7781C19.1819 16.924 19.2913 16.9969 19.1637 17.0699C19.0361 17.1428 19.1333 17.2219 18.9996 17.1793C18.8659 17.1368 18.9206 17.161 18.8537 17.0334C18.7868 16.9058 18.7443 17.0091 18.6835 17.003C18.6227 16.9969 18.6045 16.9969 18.6531 16.9119C18.7017 16.8268 18.7261 16.8329 18.6714 16.7356C18.6167 16.6383 18.7018 16.5228 18.6228 16.5046C18.5438 16.4864 18.5194 16.6201 18.3797 16.7052C18.2399 16.7902 18.0332 16.8146 18.0393 16.7842C18.0454 16.7538 18.1244 16.7112 18.2521 16.5532C18.3797 16.3952 18.4588 16.4924 18.4345 16.2493C18.4101 16.0062 18.325 16.073 18.404 15.9028C18.4828 15.7326 18.5314 15.6779 18.5314 15.6779Z" fill="#9FA6A9"/>
<path d="M18.1423 17.0578C18.2344 17.1499 18.3551 17.1247 18.3187 17.2159C18.2822 17.307 18.1739 17.3192 18.2341 17.4104C18.2943 17.5016 18.3491 17.6353 18.4281 17.6232C18.5071 17.611 18.501 17.5502 18.6955 17.5502C18.89 17.5502 19.0116 17.5077 19.0238 17.5867C19.0359 17.6657 18.9387 17.6718 18.811 17.7872C18.6834 17.9027 18.5557 18.0182 18.6591 18.0912C18.7624 18.1641 18.805 18.2979 18.7685 18.3465C18.732 18.3951 18.6955 18.4438 18.7806 18.5045C18.8657 18.5653 19.273 18.5471 19.1757 18.693C19.0784 18.8389 18.8413 18.9179 18.5921 18.9239C18.3428 18.93 18.5432 18.8571 18.0388 18.8084C17.5344 18.7598 17.4493 18.8875 17.0968 18.7173C16.7443 18.5471 16.5132 18.693 16.3187 18.383C16.1242 18.073 16.2032 18.2249 15.96 17.9027C15.7169 17.5806 15.8324 17.5806 15.6257 17.4529C15.419 17.3253 15.2427 17.1429 15.3826 17.1429C15.5224 17.1429 15.4555 16.9788 15.8871 17.3374C16.3186 17.696 16.2031 17.6778 16.5193 17.8906C16.8353 18.1034 16.9387 18.1276 17.0542 18.1034C17.1697 18.079 17.3399 18.1034 17.2305 17.9636C17.1211 17.8237 17.0602 17.6475 17.1515 17.6171C17.2427 17.5867 17.2365 17.7386 17.3885 17.5746C17.5405 17.4105 17.5405 17.3678 17.6742 17.3132C17.808 17.2585 17.7351 17.3132 17.8627 17.2342C17.9904 17.1551 18.039 16.9545 18.1423 17.0578Z" fill="#9FA6A9"/>
<path d="M19.814 17.7629C19.8801 17.8479 19.9903 17.9574 20.0389 18.0487C20.0875 18.1399 20.1787 17.9715 20.3549 17.9766C20.5313 17.9818 20.7926 18.079 20.9021 18.1277C21.0115 18.1764 21.1999 18.2067 21.3154 18.3647C21.4309 18.5228 21.516 18.4316 21.5221 18.5896C21.5282 18.7477 21.5525 18.7295 21.6558 18.8206C21.7592 18.9118 21.7774 19.082 21.595 19.0091C21.4126 18.9361 21.358 18.6869 21.1635 18.7112C20.969 18.7355 21.048 18.7902 20.896 18.8206C20.744 18.851 20.6772 18.7963 20.4948 18.7841C20.3124 18.772 20.1787 18.8327 20.2638 18.6687C20.3489 18.5046 20.4097 18.4985 20.1118 18.3769C19.814 18.2553 19.6985 18.316 19.6985 18.1884C19.6985 18.0608 19.7471 18.0486 19.6316 17.9392C19.5161 17.8297 19.4796 17.7507 19.5526 17.696C19.6255 17.6413 19.7714 17.7082 19.814 17.7629Z" fill="#9FA6A9"/>
<path d="M20.1666 19.5135C20.3672 19.6169 20.4462 19.8235 20.5435 19.787C20.6408 19.7506 20.6043 19.6898 20.6772 19.471C20.7501 19.2521 20.7562 19.0272 20.8474 19.1185C20.9386 19.2096 20.8535 19.3876 20.9994 19.4445C21.1453 19.5014 21.1757 19.544 21.2061 19.7142C21.2365 19.8844 21.2669 19.8297 21.4189 20.006C21.5708 20.1823 21.7073 20.1519 21.7333 20.3524C21.7593 20.553 22.0146 20.7597 22.0267 20.9664C22.0389 21.1731 22.0753 21.3189 21.9234 21.5803C21.7714 21.8417 21.7106 21.9753 21.662 22.0849C21.6134 22.1943 21.4675 22.249 21.3095 22.249C21.1514 22.249 21.0602 22.1821 20.963 22.2064C20.8657 22.2308 20.7989 22.3523 20.6834 22.2672C20.5679 22.1822 20.501 22.0727 20.4646 22.0058C20.4281 21.939 20.4099 21.7141 20.2397 21.7384C20.0695 21.7627 20.0938 21.8478 19.9904 21.7384C19.887 21.629 19.96 21.5378 19.6561 21.4891C19.3521 21.4405 19.2731 21.4162 19.1454 21.4466C19.0178 21.477 18.884 21.5195 18.7442 21.629C18.6044 21.7384 18.3855 21.6837 18.264 21.7384C18.1424 21.7931 17.96 21.9147 17.8263 21.8418C17.6925 21.7688 17.7412 21.7323 17.7473 21.5622C17.7533 21.3919 17.7412 21.5075 17.6561 21.2157C17.571 20.9239 17.6075 20.9665 17.5285 20.8267C17.4495 20.6869 17.3887 20.7538 17.4981 20.5532C17.6075 20.3526 17.571 20.3101 17.6318 20.2432C17.6926 20.1763 17.7473 20.2615 17.954 20.1216C18.1607 19.9818 18.2214 20.0426 18.4099 19.9697C18.5983 19.8967 18.6408 19.6172 18.7563 19.532C18.8718 19.4469 18.9022 19.38 18.9873 19.38C19.0724 19.38 19.1697 19.4286 19.3216 19.4895C19.4736 19.5503 19.4432 19.5563 19.5709 19.4165C19.6985 19.2767 19.5709 19.143 19.8019 19.1672C20.0328 19.1916 20.1179 19.1551 20.1483 19.2888C20.1787 19.4224 20.1666 19.5135 20.1666 19.5135Z" fill="#9FA6A9"/>
<path d="M24.3852 22.3826C24.5067 22.2246 24.5675 22.2063 24.525 22.0239C24.4825 21.8416 24.4946 21.6986 24.6526 21.8612C24.8107 22.0239 24.987 22.1152 25.1085 22.1212C25.2301 22.1273 25.5219 22.2185 25.224 22.4434C24.9261 22.6683 24.9809 22.5103 24.7438 22.8446C24.5067 23.179 24.6891 23.185 24.4034 23.3491C24.1176 23.5132 23.8016 23.5862 23.8624 23.4404C23.9232 23.2945 23.8928 23.2945 24.1542 23.1C24.4156 22.9055 24.5857 22.7596 24.5857 22.5955C24.5857 22.4313 24.3852 22.3826 24.3852 22.3826Z" fill="#9FA6A9"/>
<path d="M9.86928 20.7415C9.75986 20.5834 9.75985 20.5347 9.74773 20.2795C9.7356 20.0242 9.65043 19.9026 9.74773 19.7567C9.84502 19.6108 10.1003 19.3677 10.1976 19.1975C10.2948 19.0273 10.3191 18.6626 10.3799 18.9908C10.4407 19.319 10.6352 19.5135 10.3434 19.9512C10.0517 20.3888 9.86928 20.7415 9.86928 20.7415Z" fill="#9FA6A9"/>
<path d="M4.02167 11.6963C3.99733 11.6477 4.10675 11.4896 4.10675 11.4896C4.10675 11.4896 4.24052 11.4167 4.20405 11.1492C4.16757 10.8818 4.14322 11.0398 4.04602 10.7845C3.94872 10.5291 3.80291 10.5778 3.94872 10.4076C4.09462 10.2374 4.26478 9.98212 4.30125 10.1887C4.33773 10.3954 4.25265 10.5291 4.33773 10.6264C4.4228 10.7237 4.59305 10.7438 4.69026 10.9039C4.78755 11.0641 5.17655 11.1249 4.88476 11.3315C4.59296 11.5382 4.45928 11.4045 4.34986 11.5503C4.24043 11.6963 4.02167 11.6963 4.02167 11.6963Z" fill="#9FA6A9"/>
<path d="M3.6326 11.5018C3.8271 11.3924 3.8982 11.4168 3.88695 11.2222C3.8757 11.0277 4.00947 10.8574 3.80275 10.8453C3.59612 10.8332 3.5353 10.9547 3.51096 11.0398C3.48661 11.1249 3.48661 11.1492 3.54743 11.2343C3.60825 11.3194 3.62038 11.441 3.59603 11.5017C3.57186 11.5627 3.6326 11.5018 3.6326 11.5018Z" fill="#9FA6A9"/>
<path d="M2.92745 9.60542C3.08548 9.496 3.3408 9.59329 3.35293 9.36223C3.36506 9.13125 3.42588 9.07043 3.07335 9.04617C2.72082 9.02183 2.72082 9.02183 2.50197 9.04617C2.28312 9.07052 2.07649 8.85167 2.24665 9.17994C2.41681 9.50822 2.44115 9.58116 2.57492 9.60542C2.70869 9.62968 2.92745 9.60542 2.92745 9.60542Z" fill="#9FA6A9"/>
<path d="M27.4001 8.73007C27.2103 8.51316 26.9016 8.49909 27.1447 8.36532C27.3879 8.23164 27.5338 8.14648 27.7648 8.09787C27.9958 8.04927 28.239 8.14648 28.6159 8.24377C28.9927 8.34107 29.6006 8.2559 29.8803 8.34107C30.1598 8.42614 30.2936 8.59639 30.3787 8.58417C30.4638 8.57204 30.707 8.31672 30.9501 8.31672C31.1932 8.31672 31.3148 8.28025 31.8132 8.34107C32.3117 8.40189 32.798 8.42614 32.8101 8.54779C32.8222 8.66934 32.8222 8.73016 33.0046 8.73016C33.187 8.73016 33.345 8.62074 33.4544 8.79098C33.5638 8.96122 33.734 9.08278 33.7097 8.94901C33.6854 8.81532 33.5638 8.7059 33.6611 8.65721C33.7584 8.60861 34.038 8.58426 34.111 8.60861C34.1839 8.63295 34.4149 8.66943 34.4878 8.65721C34.5608 8.64508 34.5122 8.52344 34.7553 8.59639C34.9984 8.66934 35.0349 8.85171 35.0836 8.86384C35.1322 8.87597 35.2416 8.6769 35.2537 8.5455C35.2658 8.41402 35.3753 8.41402 35.1565 8.24386C34.9377 8.07362 35.1353 7.86699 35.2918 7.93993C35.4482 8.01288 35.351 8.11018 35.509 8.26821C35.6671 8.42623 35.6914 8.56 35.8008 8.51131C35.9103 8.46271 35.8494 8.25599 35.9953 8.41402C36.1412 8.57204 36.1777 8.49241 36.3114 8.46534C36.4452 8.43827 36.3357 8.3532 36.4938 8.43827C36.6518 8.52335 36.9192 8.62065 36.7247 8.77867C36.5302 8.9367 36.2384 8.91244 36.0318 9.034C35.8251 9.15555 35.8859 9.11907 35.8251 9.26497C35.7643 9.41087 35.7886 9.423 35.5455 9.48382C35.3023 9.54464 35.2295 9.49595 35.2416 9.70267C35.2537 9.90939 35.2295 9.93364 35.1443 10.0431C35.0592 10.1525 35.1078 10.2498 35.2051 10.2984C35.3024 10.347 35.4117 10.2619 35.4117 10.4078C35.4117 10.5537 35.5941 10.6631 35.8372 10.6631C36.0803 10.6631 36.1897 10.724 36.3356 10.9062C36.4815 11.0886 36.2748 11.1007 36.518 11.3317C36.7611 11.5627 36.9922 11.6721 37.0287 11.4655C37.0651 11.2589 37.0287 11.2102 37.0651 10.9671C37.1016 10.724 37.3326 10.6996 37.211 10.4808C37.0895 10.2619 36.9071 10.1647 37.0773 10.0431C37.2475 9.92152 37.0408 9.80919 37.3326 9.74987C37.6244 9.69054 37.8189 9.64185 37.9404 9.8607C38.062 10.0795 37.9283 10.2254 38.0499 10.3226C38.1714 10.4199 38.5483 10.274 38.6212 10.189C38.6942 10.1039 38.9008 10.116 38.9738 10.4321C39.0467 10.7481 39.0953 10.8333 39.2047 10.8698C39.3142 10.9062 39.3142 10.9792 39.4479 11.1007C39.5816 11.2223 39.8369 11.4168 39.4479 11.4533C39.0589 11.4897 38.7428 11.4411 38.5969 11.5748C38.451 11.7085 38.4389 11.6113 38.5361 11.7937C38.6334 11.976 38.5604 11.8545 38.6334 12.0855C38.7063 12.3164 39.0711 12.3164 38.8035 12.4745C38.536 12.6325 38.5847 12.669 38.4267 12.6204C38.2686 12.5718 38.2322 12.2227 38.0498 12.5066C37.8674 12.7906 37.8917 12.9 37.7337 12.9851C37.5757 13.0702 37.5635 12.9 37.4177 13.1675C37.2718 13.4349 37.5027 13.4593 37.1746 13.7632C36.8463 14.0671 36.6883 13.9212 36.6639 14.1766C36.6396 14.4319 36.7977 14.7358 36.7125 14.7966C36.6274 14.8575 36.6396 14.8452 36.5424 14.6751C36.4451 14.5048 36.4938 14.4076 36.1534 14.3833C35.813 14.3589 35.8373 14.2739 35.7035 14.4198C35.5698 14.5657 35.7521 14.6143 35.3753 14.5657C34.9984 14.5171 34.9498 14.0672 34.8768 14.59C34.8039 15.1128 34.7918 15.1735 34.9133 15.3194C35.0349 15.4653 35.3631 15.8178 35.509 15.6598C35.6549 15.5018 35.4726 15.3073 35.7522 15.368C36.0318 15.4288 36.1048 15.3559 36.0562 15.5139C36.0075 15.6719 35.6307 15.6963 35.9346 15.8422C36.2385 15.9881 36.4938 15.8178 36.5181 16.0489C36.5425 16.2799 36.4816 16.3407 36.4938 16.4744C36.5059 16.6081 36.5667 16.7054 36.8463 16.7054C37.1259 16.7054 37.1137 16.5959 37.1867 16.7418C37.2596 16.8877 37.4906 16.8148 37.5879 16.6081C37.6852 16.4013 37.7582 16.1704 37.904 16.4136C38.0499 16.6567 38.0741 16.7054 38.22 16.6081C38.3659 16.5108 38.3659 16.5108 38.3659 16.5108C38.3659 16.5108 38.5239 16.3649 38.6577 16.4864C38.7915 16.608 39.0102 16.4743 39.0589 16.6444C39.1075 16.8146 39.0346 16.8389 39.2413 16.8998C39.448 16.9606 39.6911 16.8633 39.8127 17.0334C39.9342 17.2037 39.606 17.0943 39.9586 17.3009C40.3111 17.5076 40.4205 17.5319 40.3963 17.6656C40.3719 17.7994 40.4692 17.8237 40.7853 17.8966C41.1013 17.9696 41.0527 17.9331 41.3081 18.1276C41.5634 18.3221 41.77 18.237 41.8552 18.3343C41.9403 18.4316 42.0862 18.4559 41.9646 18.7233C41.843 18.9908 41.7215 18.93 41.6242 19.1367C41.5269 19.3434 41.4418 19.392 41.4662 19.7567C41.4905 20.1215 41.5026 20.085 41.4297 20.2674C41.3567 20.4498 41.0893 20.474 40.8705 20.6078C40.6516 20.7416 40.6395 20.6321 40.4936 20.9968C40.3477 21.3615 40.4328 21.167 40.3112 21.4831C40.1897 21.7991 40.3598 21.6411 40.0073 21.8235C39.6547 22.0059 39.521 21.8478 39.4845 21.9573C39.448 22.0667 39.6912 21.9816 39.4359 22.2126C39.1806 22.4436 39.0712 22.5044 38.9131 22.6016C38.7551 22.6988 38.6578 22.8083 38.6943 23.0149C38.7308 23.2216 38.9131 23.2094 38.7064 23.4039C38.4997 23.5984 38.4146 23.4039 38.3539 23.72C38.2931 24.036 38.2323 23.8902 38.2931 24.2184C38.3539 24.5467 38.6699 24.5467 38.3781 24.7291C38.0863 24.9114 37.7703 24.9965 37.5879 24.5589C37.4055 24.1212 37.4055 23.9511 37.4055 23.6593C37.4055 23.3675 37.3691 23.5863 37.515 23.0879C37.6609 22.5895 37.4177 22.7596 37.5393 22.2126C37.6609 21.6655 37.6366 21.082 37.7582 20.6807C37.8797 20.2795 38.1472 20.3889 37.8797 20.0243C37.6123 19.6595 37.5637 19.7204 37.3327 19.4772C37.1017 19.2341 37.2476 19.2827 37.1138 18.9909C36.9801 18.6991 36.895 18.7234 36.7856 18.5046C36.6761 18.2857 36.6153 18.3587 36.7247 17.994C36.8342 17.6293 36.5911 17.6415 36.8342 17.5321C37.0773 17.4226 37.0409 17.1552 37.0044 17.0579C36.9679 16.9606 37.1868 16.9241 36.8464 16.8755C36.506 16.8269 36.4087 16.9363 36.2871 16.7296C36.1656 16.5229 36.2628 16.4865 36.0076 16.3649C35.7522 16.2433 35.4726 16.2433 35.3754 16.146C35.2781 16.0487 35.2781 16.0487 35.2781 16.0487C35.2781 16.0487 35.4604 15.9758 35.0471 15.9272C34.6337 15.8786 34.3298 15.9272 34.1231 15.6354C33.9164 15.3436 33.9651 15.5138 33.9164 15.2464C33.8678 14.9789 33.8069 14.9789 33.6124 14.8087C33.4179 14.6385 33.4179 14.5412 33.2356 14.4683C33.0532 14.3953 33.0167 14.4197 33.0167 14.4561C33.0167 14.4926 33.0046 14.6385 33.1747 14.7722C33.345 14.906 33.3571 15.0275 33.3571 15.0883C33.3571 15.1491 33.1261 15.222 33.1261 15.222C33.1261 15.222 33.1261 15.1491 33.0532 14.9789C32.9802 14.8087 32.9559 14.7236 32.81 14.517C32.6641 14.3103 32.6276 14.286 32.6276 14.286C32.6276 14.286 32.4574 14.0185 32.1657 13.666C31.8739 13.3135 31.7888 13.5322 31.7888 13.1311C31.7888 12.7299 31.8618 12.7299 31.7888 12.4503C31.7159 12.1707 31.5457 12.037 31.6915 11.9884C31.8374 11.9397 31.9225 11.8668 31.655 11.6358C31.3876 11.4048 31.2903 11.5264 31.1931 11.2103C31.0958 10.8943 31.3025 10.9185 30.9013 10.7726C30.5001 10.6268 30.4515 10.5052 30.2691 10.4201C30.0867 10.335 29.9773 10.2864 29.9773 10.2864C29.9773 10.2864 30.0138 10.25 29.5761 10.2135C29.1384 10.177 29.1871 9.97038 28.8588 10.1041C28.5305 10.2378 28.4819 10.2621 28.4819 10.2621C28.4819 10.2621 28.6643 10.0432 28.3482 10.0676C28.0322 10.0919 28.105 10.1649 28.0929 10.3108C28.0808 10.4567 28.1294 10.6268 27.9105 10.712C27.6917 10.7971 27.3756 11.0281 27.4972 10.785C27.6187 10.5418 27.9227 10.3716 27.8132 10.3108C27.7038 10.25 27.4728 10.4445 27.4485 10.25C27.4242 10.0555 27.4728 9.95817 27.2175 9.94604C26.9622 9.93391 26.7556 9.82449 26.9501 9.73932C27.1446 9.65424 27.3269 9.69072 27.3878 9.484C27.4486 9.27728 27.8984 9.22867 27.3999 9.24089C26.9015 9.25302 26.6826 9.25302 26.7434 9.15581C26.8043 9.05852 26.7799 8.87623 27.1324 8.92484C27.4851 8.97318 27.4851 8.82728 27.4001 8.73007Z" fill="#9FA6A9"/>
</g>
<path d="M7.46203 19.09C7.40851 18.9697 7.34171 18.8694 7.25479 18.7892C7.16118 18.7089 7.0609 18.6488 6.94049 18.602C6.82685 18.5618 6.69976 18.5418 6.57275 18.5418C6.43899 18.5418 6.31198 18.5619 6.19834 18.602C6.18498 18.6086 6.16494 18.6153 6.1515 18.6221C6.05789 18.6689 5.96429 18.7223 5.89072 18.7893C5.79712 18.8695 5.73024 18.9698 5.67671 19.0901C5.62318 19.2038 5.59647 19.3442 5.59647 19.4913V20.842C5.59647 20.9958 5.62318 21.1295 5.67671 21.2498C5.73015 21.3702 5.79703 21.4639 5.89072 21.5508C5.97765 21.631 6.08461 21.6911 6.19825 21.7312C6.3119 21.7714 6.43899 21.7914 6.57267 21.7914C6.63287 21.7914 6.69976 21.7847 6.75987 21.7781C6.82008 21.7647 6.88688 21.7513 6.9404 21.7312C7.06081 21.6911 7.1611 21.631 7.2547 21.5508C7.34162 21.4639 7.40851 21.3702 7.46194 21.2498C7.51547 21.1295 7.54219 20.9958 7.54219 20.842V19.4913C7.54228 19.3441 7.51556 19.2037 7.46203 19.09ZM6.96053 20.8353C6.96053 20.9756 6.92045 21.0759 6.85357 21.1562C6.78668 21.2231 6.70644 21.2631 6.60615 21.2699H6.57275C6.45243 21.2699 6.35874 21.2297 6.28527 21.1562C6.21838 21.0759 6.1783 20.9757 6.1783 20.8353V19.5047C6.1783 19.4779 6.1783 19.4578 6.18498 19.4378C6.18498 19.4311 6.19166 19.4244 6.19166 19.4244C6.19834 19.3242 6.23174 19.2506 6.28527 19.1837C6.29862 19.1704 6.31198 19.157 6.32534 19.1503C6.39223 19.0901 6.47247 19.07 6.57275 19.07C6.68649 19.07 6.78 19.1035 6.85365 19.1837C6.92054 19.2639 6.96062 19.3709 6.96062 19.5047L6.96053 20.8353Z" fill="#CECECF"/>
<path d="M9.01327 18.5682L8.36464 19.1366V19.7651L9.01327 19.1968V21.7643H9.6017V18.5682H9.01327Z" fill="#CECECF"/>
<path d="M10.6783 18.5682V19.5979H11.2333V19.0964H12.0825L11.0394 21.7643H11.6746L12.711 19.0964V18.5682H10.6783Z" fill="#CECECF"/>
<path d="M15.1182 19.0899C15.0647 18.9696 14.9979 18.8693 14.911 18.789C14.8174 18.7088 14.7171 18.6487 14.5967 18.6018C14.4764 18.5617 14.356 18.5417 14.229 18.5417C14.0952 18.5417 13.9682 18.5618 13.8545 18.6018C13.7342 18.6487 13.6339 18.7088 13.5469 18.789C13.4533 18.8693 13.3798 18.9696 13.3329 19.0899C13.2795 19.2036 13.2527 19.344 13.2527 19.4911V20.8418C13.2527 20.9956 13.2795 21.1293 13.3329 21.2496C13.3798 21.37 13.4533 21.4636 13.5469 21.5506C13.6339 21.6308 13.7341 21.6909 13.8545 21.731C13.9682 21.7712 14.0953 21.7912 14.229 21.7912C14.356 21.7912 14.4764 21.7712 14.5967 21.731C14.717 21.6909 14.8174 21.6308 14.911 21.5506C14.9979 21.4636 15.0648 21.37 15.1182 21.2496C15.1717 21.1293 15.1985 20.9956 15.1985 20.8418V19.4911C15.1984 19.344 15.1717 19.2035 15.1182 19.0899ZM14.6101 20.8351C14.6101 20.9755 14.5767 21.0758 14.5098 21.1561C14.4362 21.2296 14.3426 21.2698 14.229 21.2698C14.1086 21.2698 14.015 21.2296 13.9415 21.1561C13.8747 21.0758 13.8345 20.9756 13.8345 20.8351V19.5046C13.8345 19.3708 13.8747 19.2637 13.9415 19.1836C14.015 19.1033 14.1086 19.0699 14.229 19.0699C14.3426 19.0699 14.4362 19.1033 14.5098 19.1836C14.5767 19.2638 14.6101 19.3708 14.6101 19.5046V20.8351Z" fill="#CECECF"/>
<path d="M20.0125 20.4004C19.9725 20.2801 19.9056 20.1798 19.8253 20.0996C19.7451 20.0193 19.6582 19.9592 19.5579 19.9124C19.4576 19.8723 19.3505 19.8522 19.2436 19.8522C19.2035 19.8522 19.1633 19.8522 19.1233 19.8589C19.0832 19.8655 19.043 19.8722 19.0096 19.8923L19.2302 19.4577L19.6715 18.5684H19.0363L18.9695 18.7021V18.7088L18.8892 18.8693L18.361 19.9525C18.3543 19.9658 18.3476 19.9793 18.3409 19.9926C18.2741 20.1263 18.2206 20.2533 18.1738 20.3804C18.1203 20.5141 18.0935 20.6613 18.0935 20.8083C18.0935 20.9621 18.1136 21.1025 18.1671 21.2295C18.2206 21.3499 18.2874 21.4569 18.3811 21.5371C18.448 21.604 18.5148 21.6509 18.6017 21.6909H18.6084C18.6352 21.7043 18.6686 21.7177 18.6953 21.731C18.8156 21.7712 18.9494 21.7912 19.0899 21.7912C19.2302 21.7912 19.3573 21.7712 19.4776 21.7244C19.6046 21.6843 19.705 21.6175 19.7986 21.5304L19.8053 21.5238C19.8922 21.4368 19.9591 21.3433 20.0059 21.2162C20.0594 21.0958 20.0861 20.9555 20.0861 20.795C20.0861 20.6479 20.0594 20.5208 20.0125 20.4004ZM19.0899 20.3336C19.2169 20.3336 19.3171 20.3737 19.3908 20.4606C19.4644 20.5409 19.5044 20.6613 19.5044 20.8017C19.5044 20.9487 19.4644 21.069 19.3841 21.1494C19.3039 21.2295 19.2103 21.2697 19.0899 21.2697C18.9695 21.2697 18.8692 21.2295 18.7889 21.1494C18.7154 21.069 18.6753 20.9487 18.6753 20.8017C18.6753 20.6545 18.7154 20.5342 18.7889 20.454C18.8692 20.3737 18.9695 20.3336 19.0899 20.3336Z" fill="#CECECF"/>
<path d="M22.5937 20.2399C22.5669 20.0995 22.4866 19.9591 22.3596 19.8388C22.2927 19.7718 22.2126 19.7184 22.1122 19.6782C22.0119 19.6382 21.8983 19.6181 21.7578 19.6181C21.6509 19.6181 21.5572 19.6383 21.4703 19.6716C21.3834 19.705 21.3232 19.7384 21.2831 19.7786V19.0966H22.5736V18.5684H20.7482V20.3737H21.2831C21.3032 20.3136 21.3433 20.2533 21.4034 20.1999C21.4435 20.1598 21.4904 20.133 21.5572 20.1263C21.5906 20.1129 21.6308 20.1129 21.6709 20.1129C21.8179 20.1129 21.9183 20.1665 21.9717 20.26C22.0319 20.3603 22.0653 20.5008 22.0653 20.6879C22.0653 20.7882 22.052 20.8818 22.0385 20.9688C22.0385 20.9822 22.0319 20.9889 22.0252 20.9956C22.0252 21.0023 22.0252 21.0023 22.0252 21.0023C22.0051 21.0691 21.9784 21.1226 21.9383 21.1628C21.8647 21.2363 21.7778 21.2698 21.6574 21.2698C21.5371 21.2698 21.4434 21.2363 21.3833 21.1628C21.3231 21.0958 21.283 21.0023 21.2697 20.8752H20.6812C20.6946 20.989 20.7146 21.1025 20.7481 21.2162C20.7815 21.3367 20.8417 21.4368 20.942 21.5372C21.0089 21.6108 21.1092 21.6643 21.2296 21.7177C21.3432 21.7712 21.4904 21.7913 21.6575 21.7913C21.7177 21.7913 21.7645 21.7913 21.8113 21.7779H21.818C21.9183 21.7713 22.0052 21.7511 22.0855 21.7178C22.1991 21.6644 22.2927 21.6041 22.3663 21.5373C22.48 21.4169 22.5535 21.2899 22.5937 21.1562C22.6271 21.0224 22.6472 20.8686 22.6472 20.6881C22.6472 20.5341 22.6271 20.387 22.5937 20.2399Z" fill="#CECECF"/>
<path d="M23.2021 18.5682V19.5979H23.7571V19.0964H24.6063L23.5699 21.7643H24.1984L25.2415 19.0964V18.5682H23.2021Z" fill="#CECECF"/>
<path d="M27.6752 19.1099C27.6284 18.9829 27.5549 18.8826 27.468 18.7957C27.3744 18.7155 27.2741 18.6486 27.1471 18.6085C27.0267 18.5617 26.8997 18.5416 26.7592 18.5416C26.6188 18.5416 26.4851 18.5617 26.3648 18.6085C26.2444 18.6554 26.1374 18.7222 26.0438 18.8024C25.9569 18.8892 25.89 18.9964 25.8365 19.1166C25.7831 19.2436 25.7563 19.3841 25.7563 19.5379C25.7563 19.6917 25.7831 19.8254 25.8299 19.939C25.8767 20.0527 25.9436 20.153 26.0171 20.2332C26.0973 20.3135 26.1909 20.3803 26.2912 20.4204C26.3915 20.4672 26.4984 20.4873 26.6055 20.4873C26.6456 20.4873 26.6857 20.4873 26.7258 20.4807C26.7659 20.474 26.8061 20.4605 26.8395 20.4472L26.1775 21.7644H26.8126L27.488 20.3871C27.5616 20.2399 27.6218 20.0928 27.6752 19.9591C27.7287 19.8188 27.7554 19.6783 27.7554 19.5312C27.7554 19.3707 27.7287 19.2302 27.6752 19.1099ZM27.0534 19.8789C26.9731 19.9591 26.8795 19.9993 26.7592 19.9993C26.6322 19.9993 26.5319 19.9591 26.4583 19.8789C26.378 19.792 26.3446 19.6782 26.3446 19.5379C26.3446 19.3841 26.3847 19.2704 26.4583 19.1902C26.5385 19.1099 26.6388 19.0698 26.7592 19.0698C26.8795 19.0698 26.9731 19.1099 27.0534 19.1902C27.1336 19.2704 27.167 19.3841 27.167 19.5379C27.1671 19.685 27.1336 19.7986 27.0534 19.8789Z" fill="#CECECF"/>
<path d="M31.5066 18.5682L30.8513 19.1366V19.7651L31.5066 19.1968V21.7643H32.0884V18.5682H31.5066Z" fill="#CECECF"/>
<path d="M33.1649 18.5682V19.5979H33.7265V19.0964H34.569L33.5326 21.7643H34.1678L35.2042 19.0964V18.5682H33.1649Z" fill="#CECECF"/>
<path d="M36.6084 18.5682L35.9598 19.1366V19.7651L36.6084 19.1968V21.7643H37.1968V18.5682H36.6084Z" fill="#CECECF"/>
<path d="M40.1923 19.1099C40.1455 18.9829 40.072 18.8826 39.9851 18.7957C39.8915 18.7155 39.7911 18.6486 39.6641 18.6085C39.5438 18.5617 39.4167 18.5416 39.2764 18.5416C39.1359 18.5416 39.0022 18.5617 38.8818 18.6085C38.7615 18.6554 38.6545 18.7222 38.5608 18.8024C38.4739 18.8892 38.4003 18.9964 38.3536 19.1166C38.3001 19.2436 38.2733 19.3841 38.2733 19.5379C38.2733 19.6917 38.3001 19.8254 38.3469 19.939C38.3938 20.0527 38.4606 20.153 38.5341 20.2332C38.6144 20.3135 38.7013 20.3803 38.8082 20.4204C38.9085 20.4672 39.0155 20.4873 39.1225 20.4873C39.1625 20.4873 39.2027 20.4873 39.2428 20.4807C39.2829 20.474 39.323 20.4605 39.3565 20.4472L38.6945 21.7644H39.3297L40.0051 20.3871C40.0786 20.2399 40.1388 20.0928 40.1923 19.9591C40.2457 19.8188 40.2725 19.6783 40.2725 19.5312C40.2726 19.3707 40.2459 19.2302 40.1923 19.1099ZM39.5705 19.8789C39.4903 19.9591 39.3967 19.9993 39.2764 19.9993C39.1494 19.9993 39.049 19.9591 38.9754 19.8789C38.8952 19.792 38.8618 19.6782 38.8618 19.5379C38.8618 19.3841 38.9019 19.2704 38.9754 19.1902C39.0557 19.1099 39.1559 19.0698 39.2764 19.0698C39.3967 19.0698 39.4903 19.1099 39.5705 19.1902C39.6508 19.2704 39.6842 19.3841 39.6842 19.5379C39.6842 19.685 39.6508 19.7986 39.5705 19.8789Z" fill="#CECECF"/>
<path d="M28.4241 26.9867C28.384 26.8998 28.3304 26.8262 28.2702 26.766C28.2034 26.7059 28.1298 26.6591 28.0429 26.6324C27.9559 26.5989 27.8623 26.5855 27.7687 26.5855C27.6685 26.5855 27.5815 26.5989 27.4946 26.6324C27.4077 26.6592 27.3341 26.7059 27.2672 26.766C27.2004 26.8262 27.1469 26.8998 27.1067 26.9867C27.0733 27.0737 27.0532 27.1739 27.0532 27.2809V28.2705C27.0532 28.3842 27.0733 28.4845 27.1067 28.5714C27.1469 28.6583 27.2004 28.7319 27.2672 28.792C27.3341 28.8522 27.4077 28.899 27.4946 28.9257C27.5815 28.9592 27.6685 28.9725 27.7687 28.9725C27.8623 28.9725 27.9559 28.9592 28.0429 28.9257C28.1298 28.899 28.2034 28.8522 28.2702 28.792C28.3304 28.7319 28.3839 28.6583 28.4241 28.5714C28.4642 28.4845 28.4776 28.3842 28.4776 28.2705V27.2809C28.4776 27.174 28.4642 27.0737 28.4241 26.9867ZM28.0496 28.2705C28.0496 28.3708 28.0229 28.4444 27.9761 28.5046C27.9225 28.558 27.8558 28.5848 27.7688 28.5848C27.6819 28.5848 27.615 28.558 27.5616 28.5046C27.5081 28.4444 27.4813 28.3708 27.4813 28.2705V27.2877C27.4813 27.1942 27.5081 27.1138 27.5616 27.0536C27.6151 27.0002 27.6819 26.9734 27.7688 26.9734C27.8558 26.9734 27.9226 27.0002 27.9761 27.0536C28.0229 27.1138 28.0496 27.1941 28.0496 27.2877V28.2705Z" fill="#CECECF"/>
<path d="M30.3365 27.8358C30.3164 27.7289 30.2562 27.6285 30.1626 27.5349C30.1158 27.4881 30.0557 27.448 29.9821 27.4212C29.9085 27.3878 29.8216 27.3744 29.7213 27.3744C29.6478 27.3744 29.5743 27.3878 29.5141 27.4145C29.4472 27.4345 29.4005 27.4613 29.3737 27.4948V26.9866H30.3232V26.6054H28.9792V27.9293H29.3737C29.3871 27.8826 29.4206 27.8425 29.4607 27.8023C29.5074 27.7622 29.5676 27.7355 29.6612 27.7355C29.7615 27.7355 29.8351 27.7756 29.8818 27.8493C29.922 27.9227 29.942 28.0231 29.942 28.1635C29.942 28.237 29.942 28.3038 29.9287 28.3641C29.9153 28.4242 29.8886 28.4711 29.8551 28.5112C29.8016 28.5646 29.7348 28.5846 29.6479 28.5846C29.5609 28.5846 29.4874 28.5646 29.4473 28.5112C29.4005 28.4576 29.3737 28.3908 29.3604 28.2972H28.9324C28.9391 28.3841 28.9525 28.4643 28.9793 28.5512C29.006 28.6315 29.0528 28.7117 29.1264 28.7852C29.1732 28.8321 29.2467 28.8788 29.3337 28.9189C29.4206 28.9524 29.5275 28.9724 29.6479 28.9724C29.7682 28.9724 29.8752 28.9524 29.9622 28.9189C30.0424 28.8788 30.116 28.8321 30.1694 28.7785C30.2497 28.6984 30.3098 28.6047 30.3366 28.5045C30.3633 28.4109 30.3767 28.2905 30.3767 28.1635C30.3766 28.0498 30.3632 27.9428 30.3365 27.8358Z" fill="#CECECF"/>
<path d="M31.56 26.3582L30.6172 29.2H31.0183L31.9611 26.3582H31.56Z" fill="#CECECF"/>
<path d="M32.8505 26.6054L32.3691 27.0201V27.4814L32.8505 27.0669V28.9524H33.2784V26.6054H32.8505Z" fill="#CECECF"/>
<path d="M34.7227 26.6054L34.2413 27.0201V27.4814L34.7227 27.0669V28.9524H35.1507V26.6054H34.7227Z" fill="#CECECF"/>
<path d="M35.9732 27.8091V28.2103H36.9895V27.8091H35.9732Z" fill="#CECECF"/>
<path d="M38.8217 26.9867C38.7816 26.8998 38.7281 26.8262 38.6612 26.766C38.601 26.7059 38.5208 26.6591 38.4339 26.6324C38.347 26.5989 38.26 26.5855 38.1664 26.5855C38.0661 26.5855 37.9792 26.5989 37.8923 26.6324C37.8054 26.6592 37.7318 26.7059 37.6649 26.766C37.598 26.8262 37.5446 26.8998 37.5044 26.9867C37.4644 27.0737 37.4509 27.1739 37.4509 27.2809V28.2705C37.4509 28.3842 37.4643 28.4845 37.5044 28.5714C37.5445 28.6583 37.598 28.7319 37.6649 28.792C37.7318 28.8522 37.8054 28.899 37.8923 28.9257C37.9792 28.9592 38.0661 28.9725 38.1664 28.9725C38.26 28.9725 38.347 28.9592 38.4339 28.9257C38.5208 28.899 38.601 28.8522 38.6612 28.792C38.7281 28.7319 38.7816 28.6583 38.8217 28.5714C38.8551 28.4845 38.8751 28.3842 38.8751 28.2705V27.2809C38.8751 27.174 38.8551 27.0737 38.8217 26.9867ZM38.4472 28.2705C38.4472 28.3708 38.4203 28.4444 38.3669 28.5046C38.3202 28.558 38.2466 28.5848 38.1663 28.5848C38.0794 28.5848 38.0059 28.558 37.9591 28.5046C37.9056 28.4444 37.8789 28.3708 37.8789 28.2705V27.2877C37.8789 27.1942 37.9056 27.1138 37.9591 27.0536C38.0059 27.0002 38.0794 26.9734 38.1663 26.9734C38.2466 26.9734 38.3202 27.0002 38.3669 27.0536C38.4204 27.1138 38.4472 27.1941 38.4472 27.2877V28.2705Z" fill="#CECECF"/>
<path d="M40.6938 26.9867C40.6537 26.8998 40.6002 26.8262 40.54 26.766C40.4731 26.7059 40.3996 26.6591 40.3127 26.6324C40.2258 26.5989 40.1321 26.5855 40.0385 26.5855C39.9382 26.5855 39.8513 26.5989 39.7643 26.6324C39.6774 26.6592 39.6038 26.7059 39.537 26.766C39.4702 26.8262 39.4166 26.8998 39.3765 26.9867C39.3431 27.0737 39.323 27.1739 39.323 27.2809V28.2705C39.323 28.3842 39.3431 28.4845 39.3765 28.5714C39.4165 28.6583 39.4701 28.7319 39.537 28.792C39.6038 28.8522 39.6774 28.899 39.7643 28.9257C39.8513 28.9592 39.9382 28.9725 40.0385 28.9725C40.1321 28.9725 40.2257 28.9592 40.3127 28.9257C40.3996 28.899 40.4732 28.8522 40.54 28.792C40.6002 28.7319 40.6537 28.6583 40.6938 28.5714C40.7338 28.4845 40.7472 28.3842 40.7472 28.2705V27.2809C40.7473 27.174 40.7339 27.0737 40.6938 26.9867ZM40.3194 28.2705C40.3194 28.3708 40.2925 28.4444 40.2458 28.5046C40.1924 28.558 40.1255 28.5848 40.0385 28.5848C39.9517 28.5848 39.8847 28.558 39.8313 28.5046C39.7779 28.4444 39.7511 28.3708 39.7511 28.2705V27.2877C39.7511 27.1942 39.7779 27.1138 39.8313 27.0536C39.8848 27.0002 39.9517 26.9734 40.0385 26.9734C40.1255 26.9734 40.1924 27.0002 40.2458 27.0536C40.2926 27.1138 40.3194 27.1941 40.3194 27.2877V28.2705Z" fill="#CECECF"/>
<path d="M5.93085 22.5869V22.801H6.25182V23.8106H6.49256V22.801H6.81353V22.5869H5.93085Z" fill="#CECECF"/>
<path d="M7.89664 22.9079C7.88328 22.8678 7.87651 22.8344 7.85656 22.8009C7.8432 22.7674 7.8164 22.7339 7.783 22.7006C7.74292 22.6605 7.69607 22.627 7.64264 22.607C7.58911 22.587 7.5289 22.5735 7.46211 22.5735C7.38854 22.5735 7.32834 22.5869 7.2749 22.607C7.22146 22.627 7.17462 22.6605 7.13454 22.7006C7.10114 22.734 7.07433 22.7675 7.06097 22.8009C7.04085 22.8344 7.03417 22.8678 7.0209 22.9079C7.01422 22.948 7.01422 22.9949 7.00754 23.0416V23.3558C7.01422 23.4026 7.01422 23.4428 7.0209 23.4829C7.03426 23.523 7.04094 23.5632 7.06097 23.5966C7.07433 23.6234 7.10105 23.6568 7.13454 23.6902C7.17462 23.7303 7.22146 23.7637 7.2749 23.7838C7.32843 23.8106 7.38863 23.8173 7.46211 23.8173C7.52899 23.8173 7.5892 23.8106 7.64264 23.7838C7.69607 23.7637 7.74292 23.7303 7.783 23.6902C7.8164 23.6568 7.8432 23.6233 7.85656 23.5966C7.8766 23.5632 7.88328 23.523 7.89664 23.4829C7.90332 23.4428 7.91 23.4026 7.91 23.3558V23.0416C7.91 22.9948 7.90332 22.948 7.89664 22.9079ZM7.66927 23.3426C7.66927 23.3826 7.66259 23.4094 7.65591 23.4361C7.65591 23.4629 7.64923 23.4829 7.64255 23.4963C7.63587 23.5096 7.62242 23.523 7.60906 23.5364C7.5957 23.5565 7.57566 23.5764 7.54894 23.5831C7.52223 23.5965 7.49542 23.6032 7.46202 23.6032C7.42862 23.6032 7.39522 23.5965 7.36842 23.5831C7.34838 23.5764 7.32157 23.5564 7.30162 23.5364C7.29494 23.523 7.28149 23.5096 7.27481 23.4963C7.26813 23.4829 7.26145 23.4628 7.26145 23.4361C7.25477 23.4093 7.24809 23.3826 7.24809 23.3426V23.0483C7.24809 23.0149 7.25477 22.9814 7.26145 22.9547C7.26145 22.9279 7.26813 22.9079 7.27481 22.8946C7.28149 22.8812 7.29485 22.8678 7.30162 22.8544C7.32166 22.8344 7.34847 22.821 7.36842 22.8077C7.39522 22.7943 7.42862 22.7876 7.46202 22.7876C7.49542 22.7876 7.52223 22.7943 7.54894 22.8077C7.57566 22.821 7.59579 22.8345 7.60906 22.8544C7.62242 22.8678 7.63587 22.8812 7.64255 22.8946C7.64923 22.9079 7.65591 22.928 7.65591 22.9547C7.66259 22.9815 7.66927 23.0149 7.66927 23.0483V23.3426Z" fill="#CECECF"/>
<path d="M9.04672 22.821C9.03337 22.7742 9.00665 22.734 8.96648 22.7006C8.93308 22.6605 8.89292 22.6338 8.83948 22.6137C8.79263 22.5936 8.73252 22.5869 8.67231 22.5869H8.19753V23.8106H8.43826V23.3492H8.67222C8.73243 23.3492 8.79254 23.3359 8.83939 23.3158C8.89292 23.2956 8.93299 23.2689 8.96639 23.2354C9.00656 23.202 9.03328 23.162 9.04664 23.1151C9.06676 23.0683 9.07336 23.0149 9.07336 22.9681C9.07344 22.9146 9.06685 22.8679 9.04672 22.821ZM8.79263 23.0885C8.75923 23.1153 8.71239 23.1353 8.65886 23.1353H8.43826V22.801H8.65886C8.71239 22.801 8.75915 22.8143 8.79263 22.8412C8.81935 22.8746 8.83948 22.9146 8.83948 22.9682C8.83948 23.015 8.81935 23.0551 8.79263 23.0885Z" fill="#CECECF"/>
<path d="M10.1233 22.801V22.5869H9.32092V23.8106H10.1233V23.5966H9.56166V23.2958H10.043V23.0818H9.56166V22.801H10.1233Z" fill="#CECECF"/>
<path d="M10.9524 23.5566C10.919 23.59 10.8721 23.6033 10.812 23.6033C10.7786 23.6033 10.7518 23.5967 10.7251 23.59C10.6984 23.5766 10.6782 23.5633 10.6582 23.5432C10.6515 23.5299 10.6381 23.5165 10.6315 23.4965C10.6248 23.4831 10.6181 23.463 10.6114 23.4363C10.6114 23.4095 10.6047 23.3828 10.6047 23.3428C10.6047 23.3026 10.5981 23.2557 10.5981 23.1956C10.5981 23.1355 10.6047 23.0887 10.6047 23.0486C10.6047 23.0152 10.6114 22.9817 10.6114 22.955C10.6181 22.9282 10.6248 22.9081 10.6315 22.8949C10.6381 22.8815 10.6515 22.8614 10.6582 22.8547C10.6782 22.8347 10.6984 22.8146 10.7251 22.8079C10.7518 22.7946 10.7786 22.7879 10.812 22.7879C10.8721 22.7879 10.919 22.8013 10.9524 22.8347C10.9858 22.8681 11.0059 22.9082 11.0192 22.9617H11.26C11.2399 22.8347 11.1864 22.7344 11.1062 22.6743C11.0259 22.6073 10.9256 22.5739 10.812 22.5739C10.7451 22.5739 10.6782 22.5872 10.6248 22.6074C10.5779 22.6274 10.5245 22.6609 10.4844 22.701C10.4576 22.7344 10.4309 22.7679 10.4109 22.8013C10.3975 22.8347 10.3841 22.8681 10.3775 22.9082C10.3708 22.9484 10.3641 22.9952 10.3641 23.042V23.3562C10.3641 23.403 10.3708 23.4431 10.3775 23.4833C10.3841 23.5234 10.3976 23.5635 10.4109 23.5969C10.431 23.6237 10.4577 23.6571 10.4844 23.6905C10.5245 23.7307 10.578 23.7641 10.6248 23.7841C10.6783 23.8109 10.7451 23.8176 10.812 23.8176C10.9256 23.8176 11.026 23.7841 11.1062 23.724C11.1864 23.6571 11.2399 23.5635 11.26 23.4298H11.0192C11.0059 23.483 10.9858 23.5231 10.9524 23.5566Z" fill="#CECECF"/>
<path d="M12.3699 23.0416C12.3699 22.9949 12.3632 22.948 12.3566 22.9079C12.3499 22.8678 12.3364 22.8344 12.3165 22.8009C12.3031 22.7674 12.2764 22.7339 12.2496 22.7006C12.2095 22.6605 12.1627 22.627 12.1092 22.607C12.0557 22.587 11.9955 22.5735 11.922 22.5735C11.8485 22.5735 11.7883 22.5869 11.7348 22.607C11.6813 22.627 11.6345 22.6605 11.5944 22.7006C11.561 22.734 11.5409 22.7675 11.5208 22.8009C11.5075 22.8344 11.494 22.8678 11.4874 22.9079C11.4807 22.948 11.4741 22.9949 11.4741 23.0416C11.4741 23.0884 11.4674 23.1352 11.4674 23.1954C11.4674 23.2555 11.4741 23.3092 11.4741 23.3559C11.4741 23.4027 11.4807 23.4428 11.4874 23.483C11.4941 23.5231 11.5075 23.5633 11.5208 23.5967C11.5409 23.6235 11.5609 23.6569 11.5944 23.6903C11.6345 23.7304 11.6813 23.7638 11.7348 23.7839C11.7883 23.8107 11.8485 23.8173 11.922 23.8173C11.9956 23.8173 12.0558 23.8107 12.1092 23.7839C12.1627 23.7638 12.2095 23.7304 12.2496 23.6903C12.2764 23.6569 12.3031 23.6234 12.3165 23.5967C12.3365 23.5633 12.3499 23.5231 12.3566 23.483C12.3632 23.4428 12.3699 23.4027 12.3699 23.3559C12.3699 23.3092 12.3766 23.2556 12.3766 23.1954C12.3766 23.1352 12.3699 23.0884 12.3699 23.0416ZM12.1292 23.3426C12.1292 23.3826 12.1225 23.4094 12.1225 23.4361C12.1158 23.4629 12.1092 23.4829 12.1025 23.4963C12.0958 23.5096 12.0891 23.523 12.0758 23.5364C12.0556 23.5565 12.0357 23.5764 12.0089 23.5831C11.9822 23.5965 11.9553 23.6032 11.9219 23.6032C11.8885 23.6032 11.8618 23.5965 11.835 23.5831C11.8083 23.5764 11.7882 23.5564 11.7681 23.5364C11.7548 23.523 11.7481 23.5096 11.7414 23.4963C11.7281 23.4829 11.7281 23.4628 11.7213 23.4361C11.7146 23.4093 11.7146 23.3826 11.7079 23.3426V23.0483C11.7146 23.0149 11.7146 22.9814 11.7213 22.9547C11.728 22.9279 11.728 22.9079 11.7414 22.8946C11.7481 22.8812 11.7548 22.8678 11.7681 22.8544C11.7882 22.8344 11.8082 22.821 11.835 22.8077C11.8618 22.7943 11.8885 22.7876 11.9219 22.7876C11.9553 22.7876 11.9822 22.7943 12.0089 22.8077C12.0357 22.821 12.0557 22.8345 12.0758 22.8544C12.0891 22.8678 12.0958 22.8812 12.1025 22.8946C12.1092 22.9079 12.1158 22.928 12.1225 22.9547C12.1225 22.9815 12.1292 23.0149 12.1292 23.0483C12.1359 23.0884 12.1359 23.1352 12.1359 23.1953C12.1359 23.2555 12.1359 23.3024 12.1292 23.3426Z" fill="#CECECF"/>
<path d="M13.3595 22.5869V23.3359L12.8714 22.5869H12.6574V23.8106H12.8982V23.055L13.3862 23.8106H13.6001V22.5869H13.3595Z" fill="#CECECF"/>
<path d="M15.2385 23.3427C15.2251 23.3092 15.2051 23.2757 15.1783 23.249C15.1649 23.2356 15.1515 23.2223 15.1382 23.2156C15.1248 23.2022 15.1115 23.1956 15.0847 23.1822C15.185 23.122 15.2385 23.0418 15.2385 22.9213C15.2385 22.8679 15.2252 22.8211 15.2118 22.781C15.1918 22.7408 15.165 22.7074 15.1316 22.6741C15.1049 22.654 15.0848 22.6406 15.0513 22.6273C15.0447 22.6206 15.0313 22.6139 15.0179 22.6072C14.9644 22.5939 14.9177 22.5872 14.8575 22.5872H14.3694V23.8109H14.8776C14.9377 23.8109 14.9912 23.7975 15.0314 23.7841C15.0782 23.764 15.1183 23.7439 15.1517 23.7105C15.1851 23.6838 15.2119 23.6436 15.2253 23.6036C15.2453 23.5635 15.2521 23.51 15.2521 23.4565C15.2518 23.4162 15.2451 23.376 15.2385 23.3427ZM14.6032 22.801H14.8372C14.8506 22.801 14.864 22.801 14.8707 22.8077C14.9108 22.8077 14.9308 22.8144 14.9577 22.8345C14.9844 22.8612 14.9977 22.8947 14.9977 22.9415C14.9977 22.9816 14.9844 23.0151 14.9577 23.0418C14.9242 23.0685 14.8908 23.0818 14.8372 23.0818H14.6032V22.801ZM14.971 23.5566C14.9443 23.5833 14.9041 23.5967 14.8574 23.5967H14.6033V23.2958H14.8574C14.9042 23.2958 14.9443 23.3092 14.971 23.336C14.9978 23.3627 15.0179 23.3962 15.0179 23.443C15.0178 23.4897 14.9977 23.5298 14.971 23.5566Z" fill="#CECECF"/>
<path d="M16.0408 22.5869H15.8536L15.4056 23.8106H15.653L15.7266 23.59H16.1612L16.2347 23.8106H16.4822L16.0408 22.5869ZM15.7934 23.3894L15.9538 22.9481L16.101 23.3894H15.7934Z" fill="#CECECF"/>
<path d="M17.3781 22.5869V23.3359L16.89 22.5869H16.6827V23.8106H16.9168V23.055L17.4049 23.8106H17.6189V22.5869H17.3781Z" fill="#CECECF"/>
<path d="M18.5015 23.0683L18.9026 22.5869H18.6151L18.1805 23.1152V22.5869H17.9464V23.8106H18.1805V23.4428L18.341 23.2488L18.6552 23.8106H18.936L18.5015 23.0683Z" fill="#CECECF"/>
<path d="M31.2726 14.9242C31.2392 14.9577 31.1923 14.9711 31.1322 14.9711C31.0987 14.9711 31.072 14.9644 31.0453 14.9509C31.0185 14.9443 30.9984 14.9241 30.9784 14.9108C30.9717 14.8974 30.9584 14.884 30.9517 14.864C30.945 14.8507 30.9383 14.8305 30.9316 14.8039C30.9316 14.7771 30.925 14.7437 30.925 14.7102C30.925 14.6701 30.9183 14.6234 30.9183 14.5632C30.9183 14.503 30.925 14.4562 30.925 14.416C30.925 14.3759 30.9316 14.3492 30.9316 14.3225C30.9383 14.2957 30.945 14.2757 30.9517 14.2623C30.9584 14.2423 30.9717 14.2288 30.9784 14.2155C30.9984 14.1955 31.0185 14.1821 31.0453 14.1687C31.072 14.162 31.0987 14.1555 31.1322 14.1555C31.1923 14.1555 31.2392 14.1687 31.2726 14.2022C31.306 14.2356 31.3261 14.2758 31.3394 14.3292H31.5802C31.56 14.1955 31.5066 14.1019 31.4264 14.035C31.3461 13.9749 31.2458 13.9414 31.1322 13.9414C31.0653 13.9414 30.9984 13.9548 30.9517 13.9749C30.8981 13.995 30.8514 14.0284 30.8045 14.0684C30.7778 14.1019 30.7511 14.1353 30.7377 14.1687C30.7176 14.1955 30.7043 14.2355 30.6976 14.2757C30.6909 14.3159 30.6842 14.3559 30.6842 14.4027V14.7237C30.6842 14.7705 30.6909 14.8107 30.6976 14.8508C30.7043 14.8908 30.7176 14.9243 30.7377 14.9577C30.751 14.9912 30.7778 15.0246 30.8045 15.0579C30.8514 15.0981 30.8981 15.1316 30.9517 15.1516C30.9985 15.1716 31.0653 15.185 31.1322 15.185C31.2458 15.185 31.3461 15.1516 31.4264 15.0847C31.5066 15.0246 31.56 14.9242 31.5802 14.7972H31.3394C31.3261 14.8507 31.306 14.8907 31.2726 14.9242Z" fill="#CECECF"/>
<path d="M32.4828 14.6435C32.5162 14.6368 32.543 14.6234 32.5697 14.6033C32.5965 14.5832 32.6233 14.5632 32.6433 14.5365C32.6633 14.5096 32.6768 14.4763 32.6902 14.4429C32.6968 14.4227 32.7035 14.396 32.7035 14.3693C32.7102 14.3559 32.7102 14.3358 32.7102 14.3225C32.7102 14.2757 32.6968 14.2222 32.6834 14.1821C32.6633 14.1353 32.6366 14.0952 32.6031 14.0617C32.5697 14.0283 32.5296 14.0016 32.4761 13.9815C32.4494 13.9682 32.4294 13.9614 32.3959 13.9547H32.3892C32.3625 13.948 32.3358 13.948 32.309 13.948H31.8343V15.1716H32.0683V14.6836H32.2422L32.4829 15.1716H32.757L32.4828 14.6435ZM32.4227 14.4429C32.3892 14.4697 32.3491 14.4897 32.2957 14.4897H32.0683V14.162H32.2957C32.3491 14.162 32.3893 14.1753 32.4227 14.2087C32.4561 14.2355 32.4695 14.2757 32.4695 14.3225C32.4695 14.376 32.4561 14.4095 32.4227 14.4429Z" fill="#CECECF"/>
<path d="M33.8068 14.162V13.9481H32.9977V15.1717H33.8068V14.9578H33.2384V14.6635H33.7199V14.4496H33.2384V14.162H33.8068Z" fill="#CECECF"/>
<path d="M34.9636 14.3426C34.9636 14.3292 34.9569 14.3159 34.9569 14.3092C34.9569 14.2757 34.9435 14.2423 34.9368 14.2155C34.9235 14.1821 34.91 14.1554 34.89 14.1286C34.8499 14.0684 34.7964 14.0217 34.7362 13.9949C34.6761 13.9682 34.6092 13.9481 34.5222 13.9481H34.0809V15.1717H34.5222C34.6091 15.1717 34.676 15.1585 34.7362 15.1317C34.7697 15.1183 34.7964 15.0982 34.8231 15.0781C34.8499 15.058 34.87 15.0314 34.89 14.9979C34.91 14.9712 34.9234 14.9444 34.9368 14.911C34.9435 14.8842 34.9569 14.8508 34.9569 14.8174C34.9636 14.784 34.9636 14.7438 34.9702 14.7037V14.4228C34.9636 14.396 34.9636 14.3694 34.9636 14.3426ZM34.7295 14.6903C34.7295 14.7237 34.7228 14.7504 34.7228 14.7772C34.7161 14.804 34.7161 14.824 34.7095 14.8373C34.7028 14.8573 34.6893 14.8708 34.6827 14.8841C34.6427 14.9376 34.5825 14.9577 34.5022 14.9577H34.3217V14.162H34.5022C34.5825 14.162 34.6427 14.1888 34.6827 14.2422C34.6894 14.2556 34.7028 14.269 34.7095 14.289C34.7161 14.3024 34.7161 14.3225 34.7228 14.3492C34.7228 14.3759 34.7295 14.4026 34.7295 14.4361V14.6903Z" fill="#CECECF"/>
<path d="M35.2577 13.9481V15.1717H35.4918V13.9481H35.2577Z" fill="#CECECF"/>
<path d="M35.7325 13.9481V14.162H36.0535V15.1717H36.2875V14.162H36.6085V13.9481H35.7325Z" fill="#CECECF"/>
<path d="M37.8388 14.9243C37.8054 14.9577 37.7585 14.9711 37.6983 14.9711C37.6649 14.9711 37.6382 14.9644 37.6114 14.951C37.5846 14.9443 37.5646 14.9242 37.5445 14.9108C37.5378 14.8975 37.5245 14.884 37.5178 14.8641C37.5111 14.8507 37.5044 14.8306 37.4978 14.8039C37.4978 14.7771 37.4911 14.7437 37.4911 14.7102C37.4844 14.6702 37.4844 14.6234 37.4844 14.5632C37.4844 14.503 37.4844 14.4562 37.4911 14.4161C37.4911 14.3759 37.4978 14.3492 37.4978 14.3226C37.5044 14.2958 37.5111 14.2757 37.5178 14.2624C37.5245 14.2423 37.5378 14.2289 37.5445 14.2155C37.5646 14.1956 37.5846 14.1821 37.6114 14.1688C37.6381 14.1621 37.6648 14.1555 37.6983 14.1555C37.7585 14.1555 37.8053 14.1688 37.8388 14.2022C37.8722 14.2356 37.8923 14.2758 37.9057 14.3292H38.1464C38.1264 14.1956 38.0728 14.102 37.9926 14.0351C37.9123 13.975 37.8121 13.9415 37.6984 13.9415C37.6315 13.9415 37.5647 13.9548 37.5112 13.975C37.4644 13.995 37.4109 14.0284 37.3708 14.0685C37.3374 14.102 37.3173 14.1354 37.2972 14.1688C37.2838 14.1956 37.2705 14.2355 37.2638 14.2757C37.2571 14.3159 37.2504 14.356 37.2504 14.4027V14.7237C37.2504 14.7705 37.2571 14.8107 37.2638 14.8508C37.2705 14.8909 37.2838 14.9243 37.2972 14.9577C37.3172 14.9912 37.3373 15.0246 37.3708 15.0579C37.4108 15.0981 37.4644 15.1316 37.5112 15.1516C37.5647 15.1717 37.6315 15.185 37.6984 15.185C37.8122 15.185 37.9124 15.1516 37.9926 15.0847C38.0728 15.0246 38.1264 14.9243 38.1464 14.7973H37.9057C37.8923 14.8507 37.8722 14.8908 37.8388 14.9243Z" fill="#CECECF"/>
<path d="M38.8952 13.9481H38.708L38.26 15.1717H38.5141L38.5877 14.9578H39.0223L39.0959 15.1717H39.3433L38.8952 13.9481ZM38.6546 14.7572L38.8084 14.3092L38.9554 14.7572H38.6546Z" fill="#CECECF"/>
<path d="M40.1857 14.6435C40.2191 14.6368 40.2458 14.6234 40.2727 14.6033C40.2994 14.5832 40.3262 14.5632 40.3462 14.5365C40.3663 14.5096 40.3796 14.4763 40.3931 14.4429C40.4064 14.4094 40.4131 14.3693 40.4131 14.3225C40.4131 14.2757 40.4064 14.2222 40.3864 14.1821C40.3663 14.1353 40.3395 14.0952 40.3061 14.0617C40.2727 14.0283 40.2326 14.0016 40.1791 13.9815C40.1323 13.9614 40.0789 13.948 40.0187 13.948H39.5372V15.1716H39.7779V14.6836H39.9451L40.1858 15.1716H40.4599L40.1857 14.6435ZM40.1255 14.4429C40.0921 14.4697 40.052 14.4897 39.9985 14.4897H39.7779V14.162H39.9985C40.052 14.162 40.0921 14.1753 40.1255 14.2087C40.159 14.2355 40.1724 14.2757 40.1724 14.3225C40.1724 14.376 40.159 14.4095 40.1255 14.4429Z" fill="#CECECF"/>
<path d="M41.5832 14.3092C41.5765 14.2757 41.5698 14.2423 41.5565 14.2155C41.5498 14.1821 41.5297 14.1554 41.5164 14.1286C41.4695 14.0684 41.4161 14.0217 41.3559 13.9949C41.3024 13.9682 41.2289 13.9481 41.142 13.9481H40.7007V15.1717H41.142C41.2289 15.1717 41.3025 15.1585 41.3559 15.1317C41.416 15.1048 41.4695 15.058 41.5164 14.9979C41.5297 14.9712 41.5498 14.9444 41.5565 14.911C41.5698 14.8842 41.5765 14.8508 41.5832 14.8174C41.5832 14.784 41.5899 14.7438 41.5899 14.7037V14.4228C41.5899 14.3827 41.5832 14.3426 41.5832 14.3092ZM41.3492 14.6903C41.3492 14.7237 41.3492 14.7504 41.3425 14.7772C41.3425 14.804 41.3359 14.824 41.3292 14.8373C41.3225 14.8573 41.3158 14.8708 41.3024 14.8841C41.2623 14.9376 41.2021 14.9577 41.1218 14.9577H40.9413V14.162H41.1218C41.2021 14.162 41.2622 14.1888 41.3024 14.2422C41.3157 14.2556 41.3224 14.269 41.3292 14.289C41.3359 14.3024 41.3425 14.3225 41.3425 14.3492C41.3492 14.3759 41.3492 14.4026 41.3492 14.4361V14.6903Z" fill="#CECECF"/>
<path d="M41.7148 2.86756V7.58017C41.7148 7.76984 41.5597 7.92496 41.37 7.92496H35.5654C35.3758 7.92496 35.2206 7.76984 35.2206 7.58017V2.86756C35.2206 2.67789 35.3758 2.52277 35.5654 2.52277H41.37C41.5596 2.52268 41.7148 2.67789 41.7148 2.86756Z" fill="#F7D072"/>
<path opacity="0.2" d="M40.4398 3.6642L41.4495 2.65451H41.1218L40.2526 3.53043L40.1189 3.6642L40.0186 3.7578L39.3299 4.44651H37.8321L37.6984 4.31274L37.1434 3.7578L36.9227 3.53043L36.0468 2.65451H35.7192L36.5884 3.53043L36.7222 3.6642H35.3381V3.89148H36.9561L37.3841 4.3261L37.4977 4.44651V4.71388H35.338V4.94793H37.4977V5.77032H35.338V5.99761H37.4977V6.27174H37.5111L37.0898 6.68641L36.956 6.82017H35.338V7.05423H36.7221L35.8528 7.92347H36.1805L37.0497 7.05423L37.8321 6.272H39.3298L40.9881 7.92355H41.309L40.4398 7.05432H41.7168V6.82026H40.2124L39.6641 6.272V5.99787H41.7169V5.77058H39.6641V4.94819H41.7169V4.71414H39.6641V4.44678L40.2124 3.89175H41.7168V3.66446H40.4398V3.6642ZM39.4369 6.03786H37.7251V4.67389H39.4369V6.03786Z" fill="white"/>
<path d="M37.7184 4.31274L37.9458 4.54003H38.9889L39.0825 4.44651L39.2162 4.31274H37.7184ZM37.7184 4.31274L37.9458 4.54003H38.9889L39.0825 4.44651L39.2162 4.31274H37.7184ZM37.7184 4.31274L37.9458 4.54003H38.9889L39.0825 4.44651L39.2162 4.31274H37.7184ZM37.7184 4.31274L37.9458 4.54003H38.9889L39.0825 4.44651L39.2162 4.31274H37.7184ZM39.1225 6.03786L38.9889 5.90418H37.9458L37.8188 6.03786H37.8121L37.7185 6.13814H39.2162L39.1225 6.03786ZM37.7184 4.31274L37.9458 4.54003H38.9889L39.0825 4.44651L39.2162 4.31274H37.7184ZM37.3841 4.31274V6.13814H39.5505V4.31274H37.3841ZM39.3231 5.90418H37.6113V4.54012H39.3231V5.90418ZM37.7184 4.31274L37.9458 4.54003H38.9889L39.0825 4.44651L39.2162 4.31274H37.7184ZM37.7184 4.31274L37.9458 4.54003H38.9889L39.0825 4.44651L39.2162 4.31274H37.7184ZM37.7184 4.31274L37.9458 4.54003H38.9889L39.0825 4.44651L39.2162 4.31274H37.7184ZM37.7184 4.31274L37.9458 4.54003H38.9889L39.0825 4.44651L39.2162 4.31274H37.7184ZM37.7184 4.31274L37.9458 4.54003H38.9889L39.0825 4.44651L39.2162 4.31274H37.7184ZM37.7184 4.31274L37.9458 4.54003H38.9889L39.0825 4.44651L39.2162 4.31274H37.7184Z" fill="#717070"/>
<path d="M36.9346 3.52817L37.1645 3.75809H35.2206V3.52817H36.9346Z" fill="#717070"/>
<path d="M41.7148 3.52814V3.75806H39.7709L40.0007 3.52814H41.7148Z" fill="#717070"/>
<path d="M37.6128 4.58188H35.2206V4.8118H37.6128V4.58188Z" fill="#717070"/>
<path d="M41.7147 4.58188H39.3225V4.8118H41.7147V4.58188Z" fill="#717070"/>
<path d="M37.6128 5.63568H35.2206V5.8656H37.6128V5.63568Z" fill="#717070"/>
<path d="M41.7147 5.63565H39.3225V5.86557H41.7147V5.63565Z" fill="#717070"/>
<path d="M37.1648 6.689L36.9349 6.91892H35.2206V6.689H37.1648Z" fill="#717070"/>
<path d="M41.7148 6.689V6.91892H40.0004L39.7706 6.689H41.7148Z" fill="#717070"/>
<path d="M37.9478 5.90607L35.9291 7.92474H35.6042L37.6229 5.90607H37.9478Z" fill="#717070"/>
<path d="M41.3315 2.52246L39.3128 4.54113H38.9879L41.0065 2.52246H41.3315Z" fill="#717070"/>
<path d="M37.9476 4.54113H37.6226L35.6039 2.52246H35.9289L37.9476 4.54113Z" fill="#717070"/>
<path d="M41.3312 7.92474H41.0062L39.2174 6.13599L39.1217 6.04028L38.9875 5.90607H39.3125L39.4375 6.03105L39.5424 6.13599L39.6674 6.26097L40.0955 6.68908L40.2297 6.82329L40.3255 6.91901L40.4597 7.05322L41.3312 7.92474Z" fill="#717070"/>
<path d="M6.945 4.58185C6.945 3.86238 7.24172 3.21252 7.71896 2.74687C7.25683 2.29599 6.62543 2.01773 5.92881 2.01773C4.51262 2.01773 3.36469 3.16576 3.36469 4.58185C3.36469 5.99803 4.51271 7.14597 5.92881 7.14597C6.62552 7.14597 7.25692 6.86771 7.71896 6.41683C7.24172 5.95128 6.945 5.30132 6.945 4.58185Z" fill="#DC3B39"/>
<path d="M9.50915 2.0177C8.81244 2.0177 8.18112 2.29596 7.71899 2.74684C8.19624 3.21249 8.49296 3.86235 8.49296 4.58182C8.49296 5.30129 8.19624 5.95116 7.71899 6.4168C8.18112 6.86768 8.81253 7.14594 9.50915 7.14594C10.9253 7.14594 12.0733 5.99792 12.0733 4.58182C12.0733 3.16573 10.9252 2.0177 9.50915 2.0177Z" fill="#E6AB2D"/>
<path d="M8.49295 4.58193C8.49295 3.86246 8.19623 3.21259 7.71899 2.74695C7.24174 3.21259 6.94502 3.86246 6.94502 4.58193C6.94502 5.3014 7.24174 5.95126 7.71899 6.41691C8.19623 5.95135 8.49295 5.3014 8.49295 4.58193Z" fill="#D67261"/>
<path d="M8.49287 4.58179C8.49287 4.52765 8.49068 4.47404 8.48734 4.42069L7.31769 3.25113C7.232 3.39184 7.15931 3.54134 7.10165 3.69823L8.4499 5.04647C8.47758 4.89565 8.49287 4.74061 8.49287 4.58179Z" fill="#E6AB2D"/>
<path d="M6.97108 4.21902C6.95429 4.33759 6.94498 4.45861 6.94498 4.58175C6.94498 4.68019 6.95104 4.77722 6.96185 4.87276L8.07393 5.98484C8.1634 5.84852 8.24013 5.70323 8.30262 5.55048L6.97108 4.21902Z" fill="#E6AB2D"/>
<path opacity="0.2" d="M45 16.2415H0V16.8032H45V16.2415Z" fill="#040000"/>
<defs>
<linearGradient id="paint0_linear_1_494" x1="22.5" y1="-2.63672e-05" x2="22.5" y2="30.5773" gradientUnits="userSpaceOnUse">
<stop stop-color="#44484A"/>
<stop offset="1" stop-color="#193741"/>
</linearGradient>
</defs>
</svg>
